<svg xmlns="http://www.w3.org/2000/svg" xml:space="preserve" viewBox="0 0 16 16"><path d="M7.9 13.3c-.1 0-.1 0-.2-.1l-.4-.2c-.1-.1-.1-.1 0-.1s.1-.1.2-.1l.4.2 1.5-.8v-1.9L8 9.6l-1.5.8v1.9l.4.2c.2.1.3 0 .3-.1v-1.7h.4v1.7c0 .3-.2.4-.4.4-.1 0-.1 0-.3-.1l-.4-.2c-.1-.1-.2-.2-.2-.3v-1.7c0-.1.1-.2.2-.3l1.4-.8c.1-.1.2-.1.3 0l1.4.8c.1.1.2.1.2.3v1.7c0 .1-.1.2-.2.3l-1.4.8h-.3zm1.2-1.7c0-.3-.2-.4-.7-.4-.4-.1-.5-.1-.5-.2s.1-.2.4-.2c.3 0 .4.1.4.3H9c0-.4-.2-.5-.7-.5-.4 0-.6.2-.6.5s.2.4.6.4c.5.1.5.1.5.2s-.1.2-.4.2c-.4 0-.5-.1-.5-.3h-.3s-.1 0-.1.1c0 .2.1.5.8.5.5-.1.8-.2.8-.6zm1.3-1.2c0 .1-.1.3-.3.3-.2 0-.3-.1-.3-.3 0-.2.1-.3.3-.3.2 0 .3.1.3.3zm0 0c0-.1-.1-.2-.2-.2s-.2.1-.2.2.1.2.2.2.2-.1.2-.2zm-.1.1c-.1 0-.1-.1 0 0l-.1-.1v.1h-.1v-.3h.1c.1 0 .1 0 .1.1s-.1.1-.1.1l.1.1zm-.1-.2c0 .1 0 0 0 0zM14 7.5v.4l.3.1.3-.2v-.3l-.3-.2-.3.2zm-6.4 1V6.8c0-.1-.1-.1-.1-.1L6 5.7h-.2l-1.5.9c-.1 0-.1.1-.1.1v1.8c0 .1.1.1.1.2l1.5.9H6l1.5-.9c.1 0 .1-.1.1-.2 0 .1 0 .1 0 0z" style="fill:#689f63"/><path d="M3.4 6.8c0-.1 0-.1-.1-.2l-1.5-.9h-.2l-1.5.9c-.1 0-.1.1-.1.2v2.4s0 .1.1.1h.1l.8-.6c.1 0 .1-.1.1-.2V7.4c0-.1 0-.1.1-.2l.4-.2h.2l.4.2s.1.1.1.2v1.1c0 .1 0 .1.1.2l.9.5h.1V6.8zm8.4-2.6v4.4c0 .1 0 .1-.1.1l-1.5.9H10l-1.5-.9c-.1 0-.1-.1-.1-.1V6.8c0-.1 0-.1.1-.1l1.5-.9h.2l.4.2c.1 0 .1 0 .1-.1V3.6c0-.1.1-.1.1-.1l1 .5v.2zm-1.1 3.2-.6-.4H10l-.4.3V8l.5.3h.1l.4-.3v-.6zm5.2 0c.1 0 .1-.1.1-.2v-.4c0-.1 0-.1-.1-.1l-1.5-.9h-.2l-1.5.9c-.1 0-.1.1-.1.1v1.8c0 .1 0 .1.1.1l1.5.9h.2l.9-.5c.1 0 .1-.1 0-.2L13.8 8s-.1 0-.1-.1v-.5s0-.1.1-.1l.4-.3h.1l.5.3.1.1v.4c0 .1.1.1.1.1l.9-.5z" style="fill:#231815"/></svg>