<svg xmlns="http://www.w3.org/2000/svg" width="21" height="22" fill="none"><path fill="#141414" fill-opacity=".08" fill-rule="evenodd" d="M20.04 11.914c0 5.498-4.457 9.954-9.954 9.954-5.497 0-9.954-4.456-9.954-9.954 0-5.497 4.457-9.953 9.954-9.953 5.497 0 9.953 4.456 9.953 9.953Z" clip-rule="evenodd"/><path fill="#F65159" d="M9.992 20.872c5.498 0 9.954-4.456 9.954-9.953 0-5.497-4.456-9.953-9.954-9.953C4.495.966.04 5.422.04 10.919c0 5.497 4.456 9.953 9.954 9.953Z"/><path fill="#DB373F" fill-rule="evenodd" d="M9.992 19.213a8.295 8.295 0 1 0 0-16.589 8.295 8.295 0 0 0 0 16.59Zm9.954-8.294c0 5.497-4.456 9.953-9.954 9.953-5.497 0-9.953-4.456-9.953-9.953C.04 5.422 4.495.966 9.993.966c5.497 0 9.953 4.456 9.953 9.953Z" clip-rule="evenodd"/><path fill="#141414" fill-opacity=".2" fill-rule="evenodd" d="m13.557 7.646.704.704a.569.569 0 0 1 0 .804l-2.263 2.262 2.263 2.263a.569.569 0 0 1 0 .805l-.704.704a.569.569 0 0 1-.804 0l-2.263-2.264-2.262 2.263a.569.569 0 0 1-.804 0l-.704-.704a.569.569 0 0 1 0-.805l2.26-2.262-2.26-2.261a.569.569 0 0 1 0-.805l.704-.703a.569.569 0 0 1 .804 0l2.262 2.26 2.263-2.261a.569.569 0 0 1 .804 0Z" clip-rule="evenodd"/><path fill="#fff" fill-rule="evenodd" d="m13.06 7.148.703.704a.569.569 0 0 1 0 .804L11.5 10.92l2.263 2.262a.569.569 0 0 1 0 .805l-.704.704a.569.569 0 0 1-.804 0l-2.263-2.264L7.73 14.69a.569.569 0 0 1-.804 0l-.704-.704a.569.569 0 0 1 0-.804l2.26-2.262-2.26-2.262a.569.569 0 0 1 0-.804l.704-.704a.569.569 0 0 1 .804 0l2.262 2.26 2.263-2.262a.569.569 0 0 1 .804 0Z" clip-rule="evenodd"/></svg>