<svg xmlns="http://www.w3.org/2000/svg" xml:space="preserve" viewBox="0 0 16 16"><path d="M13.9 6.5c-.2-.9-.6-1.5-1.5-1.5h-1.1v1.3c0 1-.9 1.9-1.8 1.9H6.6c-.8 0-1.5.7-1.5 1.5v2.8c0 .8.7 1.3 1.5 1.5.9.3 1.8.3 2.9 0 .7-.2 1.5-.6 1.5-1.5v-1.1H8.1V11h4.4c.9 0 1.2-.6 1.5-1.5.2-1 .2-1.8-.1-3zM9.7 12c.3 0 .5.2.5.6 0 .3-.2.6-.5.6s-.5-.3-.5-.6.2-.6.5-.6z" style="fill:#fdd835"/><path d="M6.5 7.8h2.9c.8 0 1.5-.7 1.5-1.5V3.5c0-.8-.7-1.4-1.5-1.5-1-.2-2-.2-2.9 0-1.3.2-1.5.7-1.5 1.5v1.1h2.9V5h-4c-.8 0-1.6.5-1.8 1.5-.3 1.1-.3 1.8 0 3 .2.9.7 1.5 1.6 1.5h1V9.6c-.1-1 .8-1.8 1.8-1.8zm-.2-3.9c-.3 0-.6-.3-.6-.6s.3-.5.6-.5.5.3.5.6-.2.5-.5.5z" style="fill:#3c78aa"/></svg>