<svg xmlns="http://www.w3.org/2000/svg" width="40" height="40" fill="none"><path fill="#C9CDD4" d="M8.75 2h15.3l11.7 10.8v20.7a4.5 4.5 0 0 1-4.5 4.5H8.75a4.5 4.5 0 0 1-4.5-4.5v-27A4.5 4.5 0 0 1 8.75 2Z"/><path fill="#86909C" d="m24.05 2 11.7 10.8h-7.2a4.5 4.5 0 0 1-4.5-4.5V2Z"/><path fill="#fff" d="M13.101 30c.91 0 1.624-.235 2.14-.706.518-.47.77-1.119.755-1.949l-.01-.031h-1.504c0 .505-.114.88-.342 1.123-.229.244-.575.366-1.039.366-.488 0-.87-.188-1.144-.566-.275-.377-.412-.865-.412-1.463V25.22c0-.595.13-1.08.39-1.455.261-.376.623-.563 1.087-.563.499 0 .868.121 1.107.365.24.244.359.615.359 1.113h1.508l.01-.032c.015-.84-.244-1.491-.775-1.954-.53-.463-1.268-.694-2.21-.694-.902 0-1.631.301-2.188.905-.555.603-.833 1.378-.833 2.325v1.544c0 .95.285 1.726.855 2.326.57.6 1.32.9 2.247.9Zm6.76 0c.85 0 1.534-.193 2.051-.577.517-.385.775-.91.775-1.575 0-.638-.223-1.152-.669-1.541-.446-.39-1.094-.706-1.944-.948-.555-.189-.947-.368-1.173-.537-.227-.17-.34-.385-.34-.649 0-.288.104-.525.313-.71.21-.185.505-.277.887-.277.421 0 .75.103.983.311.233.209.35.507.35.895h1.503l.01-.032c.018-.705-.234-1.274-.756-1.708-.523-.435-1.212-.652-2.069-.652-.807 0-1.47.202-1.991.606-.52.404-.781.925-.781 1.562 0 .634.23 1.134.693 1.501.462.366 1.14.685 2.032.955.52.16.884.331 1.09.513a.911.911 0 0 1 .312.721c0 .292-.11.525-.327.7-.218.174-.534.262-.948.262-.46 0-.825-.11-1.094-.326-.27-.218-.404-.556-.404-1.015h-1.502l-.011.032c-.018.826.271 1.447.868 1.864.597.416 1.31.625 2.143.625Zm7.51-.113L30 22.112h-1.636l-1.684 5.682-.09.411h-.032l-.096-.427-1.672-5.666h-1.636l2.623 7.775h1.594Z"/></svg>