<svg xmlns="http://www.w3.org/2000/svg" xmlns:xlink="http://www.w3.org/1999/xlink" xml:space="preserve" viewBox="0 0 16 16"><defs><path id="a" d="M0 0h16v16H0z"/></defs><clipPath id="b"><use xlink:href="#a" style="overflow:visible"/></clipPath><g style="clip-path:url(#b)"><path d="m1.2 7.1.1-.2h2.9l-.1.2H1.2zM0 7.9s0-.1 0 0l.1-.2h3.7v.1h-.1L0 7.9zm1.9.7.1-.3h1.7v.3s0 .1-.1.1l-1.7-.1zM10 7c-.5.1-.8.2-1.3.3-.1 0-.1 0-.2-.1S8.3 7 8.1 7c-.5-.2-1-.2-1.4.1-.5.3-.8.8-.8 1.5 0 .6.4 1.1 1.1 1.2.5.1 1-.1 1.3-.5 0-.1.1-.2.2-.3H7c-.2 0-.2-.1-.2-.2l.4-.8s0-.1.1-.1h2.9v.6c-.1.5-.3 1-.6 1.4-.6.7-1.3 1.2-2.2 1.3-.8.1-1.5 0-2.1-.5-.6-.4-.9-1-1-1.7-.1-.8.1-1.6.6-2.3.6-.7 1.3-1.1 2.2-1.3.7-.1 1.4 0 2.1.4.4.2.7.6.9 1.1 0 0 0 .1-.1.1zm2.6 4.3c-.7 0-1.4-.2-1.9-.7-.5-.4-.8-.9-.8-1.5-.1-.9.1-1.7.6-2.4s1.2-1.1 2.2-1.2c.8-.1 1.5-.1 2.2.4.6.4 1 1 1.1 1.7.1 1.1-.2 1.9-.9 2.6-.5.5-1.1.8-1.9 1-.2.1-.4.1-.6.1zm1.8-3.1v-.3c-.1-.8-.8-1.2-1.6-1-.7.2-1.2.6-1.4 1.4-.1.6.2 1.2.7 1.5.4.2.9.2 1.3 0 .7-.5 1-1 1-1.6z" style="fill:#00acc1"/></g></svg>