<svg xmlns="http://www.w3.org/2000/svg" width="24" height="24" fill="none"><g filter="url(#a)"><path fill="#387BFF" stroke="#1664FF" stroke-width="2" d="M21.428 12a9.429 9.429 0 1 1-18.857 0 9.429 9.429 0 0 1 18.857 0Z"/><g filter="url(#b)"><path fill="#fff" fill-rule="evenodd" d="M17.145 12.237v1.143a.571.571 0 0 1-.571.57h-5.932a.568.568 0 0 1-.326-.101l-.053-.042-.048-.048a.569.569 0 0 1-.144-.38V7.43c0-.316.256-.572.571-.572h1.143c.316 0 .572.256.572.571v4.237h4.217c.315 0 .571.256.571.572Z" clip-rule="evenodd"/></g></g><defs><filter id="a" width="20.571" height="22.114" x="1.714" y="1.714" color-interpolation-filters="sRGB" filterUnits="userSpaceOnUse"><feFlood flood-opacity="0" result="BackgroundImageFix"/><feColorMatrix in="SourceAlpha" result="hardAlpha" values="0 0 0 0 0 0 0 0 0 0 0 0 0 0 0 0 0 0 127 0"/><feOffset dy="1.543"/><feColorMatrix values="0 0 0 0 0.0784314 0 0 0 0 0.0784314 0 0 0 0 0.0784314 0 0 0 0.08 0"/><feBlend in2="BackgroundImageFix" result="effect1_dropShadow_118545_226283"/><feBlend in="SourceGraphic" in2="effect1_dropShadow_118545_226283" result="shape"/></filter><filter id="b" width="7.654" height="7.673" x="10.071" y="6.857" color-interpolation-filters="sRGB" filterUnits="userSpaceOnUse"><feFlood flood-opacity="0" result="BackgroundImageFix"/><feColorMatrix in="SourceAlpha" result="hardAlpha" values="0 0 0 0 0 0 0 0 0 0 0 0 0 0 0 0 0 0 127 0"/><feOffset dx=".579" dy=".579"/><feColorMatrix values="0 0 0 0 0.0784314 0 0 0 0 0.0784314 0 0 0 0 0.0784314 0 0 0 0.2 0"/><feBlend in2="BackgroundImageFix" result="effect1_dropShadow_118545_226283"/><feBlend in="SourceGraphic" in2="effect1_dropShadow_118545_226283" result="shape"/></filter></defs></svg>