<svg xmlns="http://www.w3.org/2000/svg" width="24" height="24" fill="currentColor" viewBox="0 0 20 20"><path d="M3.25 2.5a.75.75 0 0 0-.75.75v3.375c0 .207.168.375.375.375h.75A.375.375 0 0 0 4 6.625V4h2.625A.375.375 0 0 0 7 3.625v-.75a.375.375 0 0 0-.375-.375H3.25zm13.5 15a.75.75 0 0 0 .75-.75v-3.375a.375.375 0 0 0-.375-.375h-.75a.375.375 0 0 0-.375.375V16h-2.625a.375.375 0 0 0-.375.375v.75c0 .207.168.375.375.375h3.375zm-13.5 0a.75.75 0 0 1-.75-.75v-3.375c0-.207.168-.375.375-.375h.75c.207 0 .375.168.375.375V16h2.625c.207 0 .375.168.375.375v.75a.375.375 0 0 1-.375.375H3.25zM17.5 3.25a.75.75 0 0 0-.75-.75h-3.375a.375.375 0 0 0-.375.375v.75c0 .207.168.375.375.375H16v2.625c0 .207.168.375.375.375h.75a.375.375 0 0 0 .375-.375V3.25z"/></svg>