<svg xmlns="http://www.w3.org/2000/svg" width="16" height="20" fill="none"><mask id="a" width="16" height="20" x="0" y="0" maskUnits="userSpaceOnUse" style="mask-type:alpha"><path fill="#fff" d="M1.103 0h10.24c.146 0 .285.056.389.157l4.105 3.985c.104.101.163.24.163.384v14.393c0 .597-.494 1.081-1.103 1.081H1.103A1.092 1.092 0 0 1 0 18.919V1.08C0 .484.494 0 1.103 0Z"/></mask><g mask="url(#a)"><path fill="#F7BA1E" d="M1.103 0h10.24c.146 0 .285.056.389.157l4.105 3.985c.104.101.163.24.163.384v14.393c0 .597-.494 1.081-1.103 1.081H1.103A1.092 1.092 0 0 1 0 18.919V1.08C0 .484.494 0 1.103 0Z"/><path fill="#FDDB8A" fill-rule="evenodd" d="M11.57 0h4.414v4.324h-3.31c-.61 0-1.104-.484-1.104-1.08V0Z" clip-rule="evenodd"/></g><path fill="#fff" d="M4.9 8.888c0 .084.068.152.152.152h2.34v6.81c0 .083.068.15.152.15h.9a.151.151 0 0 0 .152-.15V9.04h2.344a.151.151 0 0 0 .152-.152v-.736A.151.151 0 0 0 10.94 8H5.052a.151.151 0 0 0-.152.152v.736Z"/></svg>