<svg xmlns="http://www.w3.org/2000/svg" width="24" height="24" fill="currentColor" viewBox="0 0 32 32"><path d="M13.769 9.077h9.23v2.308h-9.23V9.077Zm-3.462 5.77h11.539v2.307H10.307v-2.308Zm-1.153 5.768h9.23v2.308h-9.23v-2.308Z"/><path d="M11.508 26.385a11.441 11.441 0 0 1-1.11-2.584 12.41 12.41 0 0 1-.288-1.3 17.18 17.18 0 0 1-.198-2.536l.087-.734c.013-.102.036-.201.07-.298.166-.667.394-1.315.68-1.938l.375-.776c.386-.771.82-1.518 1.297-2.236l.511-.775c.529-.793 1.077-1.531 1.604-2.256l.55-.775.444-.6c.22-.29.42-.596.596-.914 1.297-2.149 1.639-4.405 0-6.307A7.16 7.16 0 0 0 14.522 1a8.3 8.3 0 0 1 .108 1.957 8.744 8.744 0 0 1-.711 2.86c-.627 1.516-1.126 2.047-3.583 5.842-.481.7-.907 1.436-1.272 2.202-.45.976-.789 2.002-1.008 3.058-.084.87-.074 1.747.031 2.615.178 1.531.658 3.01 1.408 4.343.54.933 1.218 1.779 2.012 2.508h.002Zm9.137-20.77c.473.81.847 1.678 1.11 2.584.12.427.216.86.288 1.3.129.839.195 1.687.199 2.536l-.088.734a1.536 1.536 0 0 1-.07.298 10.95 10.95 0 0 1-.68 1.938l-.375.776c-.386.771-.82 1.518-1.297 2.236l-.511.775c-.529.793-1.077 1.531-1.604 2.256l-.55.776-.444.6c-.22.29-.42.595-.596.913-1.297 2.149-1.639 4.404 0 6.307.467.531 1.007.988 1.604 1.356a8.288 8.288 0 0 1-.108-1.957 8.744 8.744 0 0 1 .711-2.86c.627-1.517 1.126-2.047 3.583-5.842.481-.698.907-1.434 1.273-2.202.45-.976.788-2.002 1.007-3.057a12.09 12.09 0 0 0-.031-2.616 11.608 11.608 0 0 0-1.408-4.343 10.622 10.622 0 0 0-2.012-2.508h-.001Z"/></svg>