<svg xmlns="http://www.w3.org/2000/svg" xml:space="preserve" width="24" height="24" viewBox="0 0 48 48"><switch><g><linearGradient id="a" x1="26.43" x2="21.43" y1="34.075" y2="15.325" gradientTransform="matrix(1 0 0 -1 0 47.89)" gradientUnits="userSpaceOnUse"><stop offset="0" stop-color="#1765ff"/><stop offset="1" stop-color="#1765ff" stop-opacity="0"/></linearGradient><path fill="url(#a)" fill-rule="evenodd" d="M27.6 11.7c-2.6-.8-5.4-.7-8 .3-2.6 1-4.8 2.7-6.3 5s-2.2 5-2.1 7.8 1.2 5.4 3 7.5c1.8 2.1 4.2 3.6 6.9 4.2 2.7.6 5.5.4 8-.8 1.8-.8 3.9 0 4.7 1.8.8 1.8 0 3.9-1.8 4.7-3.9 1.7-8.3 2.2-12.5 1.2-4.2-1-8-3.3-10.8-6.5C6 33.7 4.3 29.6 4 25.3c-.2-4.3.9-8.6 3.2-12.2 2.4-3.6 5.8-6.4 9.9-7.8 4-1.5 8.5-1.6 12.6-.4C33.8 6.1 37.5 8.6 40 12c2.6 3.5 4 7.6 4 12 0 2-1.6 3.6-3.6 3.6S36.8 26 36.8 24c0-2.8-.9-5.4-2.5-7.7-1.7-2.2-4-3.8-6.7-4.6z" clip-rule="evenodd"/><linearGradient id="b" x1="-1.147" x2="37.603" y1="28.757" y2="21.257" gradientTransform="matrix(1 0 0 -1 0 47.89)" gradientUnits="userSpaceOnUse"><stop offset="0" stop-color="#adc9ff"/><stop offset="1" stop-color="#8ab1ff" stop-opacity="0"/></linearGradient><path fill="url(#b)" fill-rule="evenodd" d="M27.6 11.7c-2.6-.8-5.4-.7-8 .3-2.6 1-4.8 2.7-6.3 5s-2.2 5-2.1 7.8 1.2 5.4 3 7.5c1.8 2.1 4.2 3.6 6.9 4.2 2.7.6 5.5.4 8-.8 1.8-.8 3.9 0 4.7 1.8.8 1.8 0 3.9-1.8 4.7-3.9 1.7-8.3 2.2-12.5 1.2-4.2-1-8-3.3-10.8-6.5C6 33.7 4.3 29.6 4 25.3c-.2-4.3.9-8.6 3.2-12.2 2.4-3.6 5.8-6.4 9.9-7.8 4-1.5 8.5-1.6 12.6-.4C33.8 6.1 37.5 8.6 40 12c2.6 3.5 4 7.6 4 12 0 2-1.6 3.6-3.6 3.6S36.8 26 36.8 24c0-2.8-.9-5.4-2.5-7.7-1.7-2.2-4-3.8-6.7-4.6z" clip-rule="evenodd"/></g><animateTransform attributeName="transform" begin="0s" dur="2s" from="0 24 24" repeatCount="indefinite" to="360 24 24" type="rotate"/></switch></svg>