<svg xmlns="http://www.w3.org/2000/svg" width="12" height="14" fill="none"><g filter="url(#a)"><mask id="b" fill="#fff"><path d="M6 0a6 6 0 1 1 0 12A6 6 0 0 1 6 0Z"/></mask><path fill="#80838A" d="M6 0a6 6 0 1 1 0 12A6 6 0 0 1 6 0Z"/><path fill="#676B72" d="M6 1.17A4.83 4.83 0 0 1 10.83 6h2.34A7.17 7.17 0 0 0 6-1.17v2.34ZM10.83 6A4.83 4.83 0 0 1 6 10.83v2.34A7.17 7.17 0 0 0 13.17 6h-2.34ZM6 10.83A4.83 4.83 0 0 1 1.17 6h-2.34A7.17 7.17 0 0 0 6 13.17v-2.34ZM1.17 6A4.83 4.83 0 0 1 6 1.17v-2.34A7.17 7.17 0 0 0-1.17 6h2.34Z" mask="url(#b)"/><g filter="url(#c)"><path fill="#fff" fill-rule="evenodd" d="m8.446 4.222.412.413a.292.292 0 0 1 0 .412l-3.3 3.3a.29.29 0 0 1-.155.08l-.034.005h-.034a.29.29 0 0 1-.19-.085L3.29 6.49a.292.292 0 0 1 0-.413l.412-.412a.292.292 0 0 1 .412 0l1.238 1.237 2.681-2.68a.292.292 0 0 1 .413 0Z" clip-rule="evenodd"/></g></g><defs><filter id="a" width="12" height="13.167" x="0" y="0" color-interpolation-filters="sRGB" filterUnits="userSpaceOnUse"><feFlood flood-opacity="0" result="BackgroundImageFix"/><feColorMatrix in="SourceAlpha" result="hardAlpha" values="0 0 0 0 0 0 0 0 0 0 0 0 0 0 0 0 0 0 127 0"/><feOffset dy="1.167"/><feColorMatrix values="0 0 0 0 0.0784314 0 0 0 0 0.0784314 0 0 0 0 0.0784314 0 0 0 0.08 0"/><feBlend in2="BackgroundImageFix" result="effect1_dropShadow_1_24505"/><feBlend in="SourceGraphic" in2="effect1_dropShadow_1_24505" result="shape"/></filter><filter id="c" width="6.177" height="4.733" x="3.204" y="4.137" color-interpolation-filters="sRGB" filterUnits="userSpaceOnUse"><feFlood flood-opacity="0" result="BackgroundImageFix"/><feColorMatrix in="SourceAlpha" result="hardAlpha" values="0 0 0 0 0 0 0 0 0 0 0 0 0 0 0 0 0 0 127 0"/><feOffset dx=".438" dy=".438"/><feColorMatrix values="0 0 0 0 0.0784314 0 0 0 0 0.0784314 0 0 0 0 0.0784314 0 0 0 0.2 0"/><feBlend in2="BackgroundImageFix" result="effect1_dropShadow_1_24505"/><feBlend in="SourceGraphic" in2="effect1_dropShadow_1_24505" result="shape"/></filter></defs></svg>