<svg xmlns="http://www.w3.org/2000/svg" width="24" height="24" fill="currentColor" viewBox="0 0 20 20"><path d="M9.25 1.75a7.5 7.5 0 0 1 5.807 12.246l2.981 2.981a.375.375 0 0 1 0 .53l-.53.531a.375.375 0 0 1-.53 0l-2.982-2.98A7.5 7.5 0 1 1 9.25 1.75zm0 1.5a6 6 0 1 0 0 12 6 6 0 0 0 0-12zm.375 3c.207 0 .375.168.375.375V8.5h1.875c.207 0 .375.168.375.375v.75a.375.375 0 0 1-.375.375H10v1.875a.375.375 0 0 1-.375.375h-.75a.375.375 0 0 1-.375-.375V10H6.625a.375.375 0 0 1-.375-.375v-.75c0-.207.168-.375.375-.375H8.5V6.625c0-.207.168-.375.375-.375h.75z"/></svg>