<svg xmlns="http://www.w3.org/2000/svg" width="20" height="22" fill="none"><path fill="#141414" fill-opacity=".08" fill-rule="evenodd" d="M20 11.916c0 5.512-4.469 9.98-9.98 9.98-5.513 0-9.981-4.468-9.981-9.98 0-5.512 4.468-9.98 9.98-9.98 5.512 0 9.981 4.468 9.981 9.98Z" clip-rule="evenodd"/><path fill="#1EBF6F" d="M9.98 20.898c5.513 0 9.981-4.468 9.981-9.98 0-5.512-4.468-9.981-9.98-9.981C4.469.937 0 5.406 0 10.917c0 5.513 4.469 9.981 9.98 9.981Z"/><path fill="#1CB267" fill-rule="evenodd" d="M9.98 19.235a8.317 8.317 0 1 0 0-16.634 8.317 8.317 0 0 0 0 16.634Zm9.981-8.317c0 5.512-4.468 9.98-9.98 9.98C4.469 20.898 0 16.43 0 10.918 0 5.406 4.469.937 9.98.937c5.513 0 9.981 4.469 9.981 9.98Z" clip-rule="evenodd"/><path fill="#141414" fill-opacity=".2" fill-rule="evenodd" d="m14.548 8.46.686.686c.19.19.19.496 0 .686L9.745 15.32a.483.483 0 0 1-.258.134l-.056.007h-.058a.483.483 0 0 1-.314-.141L5.97 12.233a.485.485 0 0 1 0-.686l.686-.686c.19-.19.497-.19.686 0l2.059 2.058 4.46-4.46a.486.486 0 0 1 .686 0Z" clip-rule="evenodd"/><path fill="#fff" fill-rule="evenodd" d="m14.048 7.96.687.687a.486.486 0 0 1 0 .686l-5.49 5.489a.483.483 0 0 1-.257.134l-.057.007h-.057a.483.483 0 0 1-.315-.141l-3.087-3.088a.485.485 0 0 1 0-.686l.686-.686c.19-.19.496-.19.686 0l2.058 2.058 4.46-4.46a.486.486 0 0 1 .686 0Z" clip-rule="evenodd"/></svg>