<svg xmlns="http://www.w3.org/2000/svg" width="28" height="28" fill="none"><g filter="url(#a)"><path fill="#fff" fill-rule="evenodd" d="M14 22c5.523 0 10-4.477 10-10S19.523 2 14 2 4 6.477 4 12s4.477 10 10 10Z" clip-rule="evenodd"/></g><path fill="#fff" fill-opacity=".01" d="M24 22H4V2h20z"/><path fill="#42526E" fill-rule="evenodd" d="M15.422 13.918a.823.823 0 0 1 0 1.173.842.842 0 0 1-1.183 0l-2.47-2.45a.908.908 0 0 1 0-1.29l2.462-2.442a.842.842 0 0 1 1.365.269.823.823 0 0 1-.182.904l-1.931 1.914 1.939 1.922Z" clip-rule="evenodd"/><defs><filter id="a" width="28" height="28" x="0" y="0" color-interpolation-filters="sRGB" filterUnits="userSpaceOnUse"><feFlood flood-opacity="0" result="BackgroundImageFix"/><feColorMatrix in="SourceAlpha" result="hardAlpha" values="0 0 0 0 0 0 0 0 0 0 0 0 0 0 0 0 0 0 127 0"/><feOffset dy="2"/><feGaussianBlur stdDeviation="2"/><feColorMatrix values="0 0 0 0 0.0352941 0 0 0 0 0.117647 0 0 0 0 0.258824 0 0 0 0.25 0"/><feBlend in2="BackgroundImageFix" result="effect1_dropShadow_135_11387"/><feColorMatrix in="SourceAlpha" result="hardAlpha" values="0 0 0 0 0 0 0 0 0 0 0 0 0 0 0 0 0 0 127 0"/><feOffset/><feGaussianBlur stdDeviation=".5"/><feColorMatrix values="0 0 0 0 0.0352941 0 0 0 0 0.117647 0 0 0 0 0.258824 0 0 0 0.31 0"/><feBlend in2="effect1_dropShadow_135_11387" result="effect2_dropShadow_135_11387"/><feBlend in="SourceGraphic" in2="effect2_dropShadow_135_11387" result="shape"/></filter></defs></svg>