<svg xmlns="http://www.w3.org/2000/svg" width="24" height="24" fill="currentColor" viewBox="0 0 18 18"><path d="M12.75 6a.75.75 0 0 1-.75-.75V1.875c0-.207.168-.375.375-.375h.75c.207 0 .375.168.375.375V4.5h2.625c.207 0 .375.168.375.375v.75a.375.375 0 0 1-.375.375H12.75Zm-7.5 6a.75.75 0 0 1 .75.75v3.375a.375.375 0 0 1-.375.375h-.75a.375.375 0 0 1-.375-.375V13.5H1.875a.375.375 0 0 1-.375-.375v-.75c0-.207.168-.375.375-.375H5.25Zm6.75.75a.75.75 0 0 1 .75-.75h3.375c.207 0 .375.168.375.375v.75a.375.375 0 0 1-.375.375H13.5v2.625a.375.375 0 0 1-.375.375h-.75a.375.375 0 0 1-.375-.375V12.75Zm-6-7.5a.75.75 0 0 1-.75.75H1.875a.375.375 0 0 1-.375-.375v-.75c0-.207.168-.375.375-.375H4.5V1.875c0-.207.168-.375.375-.375h.75c.207 0 .375.168.375.375V5.25Z"/></svg>