<svg xmlns="http://www.w3.org/2000/svg" width="24" height="24" fill="currentColor"><path fill-rule="evenodd" d="M21 2c.505 0 .957.452.997.931L22 3v18c0 .48-.43.955-.928.997L21 22H3c-.505 0-.957-.452-.997-.931L2 21v-6h2v5h16V4H4v5H2V3c0-.48.43-.955.928-.997L3 2h18Zm-9.082 6.103 3.557 3.558a.5.5 0 0 1 0 .707l-3.536 3.535a.5.5 0 0 1-.707 0l-.707-.707a.5.5 0 0 1 0-.707l1.489-1.49H2.5a.5.5 0 0 1-.5-.5v-1a.5.5 0 0 1 .5-.5h9.486l-1.482-1.481a.5.5 0 0 1 0-.707l.707-.708a.5.5 0 0 1 .707 0Z" clip-rule="evenodd"/></svg>