<svg xmlns="http://www.w3.org/2000/svg" width="24" height="24" fill="currentColor" viewBox="0 0 14 14"><path d="M1.338 1.338a.583.583 0 0 0-.171.412v2.625a.292.292 0 0 0 .291.292h.584a.292.292 0 0 0 .291-.292V2.333h2.042a.292.292 0 0 0 .292-.291v-.584a.292.292 0 0 0-.292-.291H1.75a.583.583 0 0 0-.412.17Zm11.324 11.325a.583.583 0 0 0 .171-.413V9.625a.292.292 0 0 0-.291-.292h-.584a.292.292 0 0 0-.291.292v2.042H9.625a.292.292 0 0 0-.292.291v.584a.292.292 0 0 0 .292.291h2.625a.583.583 0 0 0 .412-.17Zm-11.324 0c.109.109.257.17.412.17h2.625a.292.292 0 0 0 .292-.291v-.584a.292.292 0 0 0-.292-.291H2.333V9.625a.292.292 0 0 0-.291-.292h-.584a.292.292 0 0 0-.291.292v2.625c0 .155.061.303.17.413ZM12.663 1.338a.583.583 0 0 0-.413-.171H9.625a.292.292 0 0 0-.292.291v.584a.292.292 0 0 0 .292.291h2.042v2.042a.292.292 0 0 0 .291.292h.584a.292.292 0 0 0 .291-.292V1.75a.583.583 0 0 0-.17-.412ZM5.25 8.75v-3.5h3.5v3.5h-3.5ZM4.083 4.667c0-.322.262-.584.584-.584h4.666c.323 0 .584.262.584.584v4.666a.583.583 0 0 1-.584.584H4.667a.583.583 0 0 1-.584-.584V4.667Z"/></svg>