<svg xmlns="http://www.w3.org/2000/svg" width="24" height="24" fill="none"><path fill="#1A2330" fill-rule="evenodd" d="M17.895 14.565c.22 0 .397.177.397.396v3.411a.396.396 0 0 1-.602.34l-2.829-1.706a.396.396 0 0 1 0-.679l2.83-1.706a.395.395 0 0 1 .204-.056ZM12 16c.184 0 .333.15.333.333V17a.333.333 0 0 1-.333.333H5.333A.333.333 0 0 1 5 17v-.667c0-.184.15-.333.333-.333H12Zm4.667-5c.184 0 .333.15.333.333V12c0 .184-.15.333-.333.333H5.333A.333.333 0 0 1 5 12v-.667c0-.184.15-.333.333-.333h11.334Zm0-5c.184 0 .333.15.333.333V7c0 .184-.15.333-.333.333H5.333A.333.333 0 0 1 5 7v-.667C5 6.15 5.15 6 5.333 6h11.334Z" clip-rule="evenodd"/></svg>