<svg xmlns="http://www.w3.org/2000/svg" xml:space="preserve" id="图层_1" x="0" y="0" version="1.1" viewBox="0 0 16 16"><style>.st0{fill:red}.st1{fill:#69f}</style><path d="M8.7 7.4c.8.8-.2 1.6-.2 1.6s1.9-1 1-2.2c-.8-1.1-1.4-1.7 1.9-3.6.1 0-5.2 1.3-2.7 4.2z" class="st0"/><path d="M9.5.1s1.6 1.6-1.5 4c-2.5 2-.6 3.1 0 4.4C6.6 7.2 5.5 6 6.2 5c1-1.6 4-2.4 3.3-4.9z" class="st0"/><path d="M11.3 11.8c2.9-1.5 1.5-2.9.6-2.7-.2 0-.3.1-.3.1s.1-.1.3-.2c1.7-.6 3.2 1.9-.6 2.8-.1.1-.1.1 0 0zm-5.3.6s-.6.3.4.5c1.2.1 1.8.1 3.2-.1l.8.4c-3 1.3-6.8-.1-4.4-.8zm-.4-1.6s-.7.5.4.6c1.3.1 2.3.2 4.1-.2 0 0 .3.3.6.4-3.6 1-7.7 0-5.1-.8z" class="st1"/><path d="M12.7 13.7s.4.4-.5.6c-1.7.5-7.2.7-8.7 0-.5-.2.5-.6.8-.6.3-.1.5 0 .5 0-.6-.4-3.9.8-1.7 1.2 6.1.9 11.2-.5 9.6-1.2zM6.3 9s-2.8.7-1 .9c.7.1 2.3.1 3.6 0 1.2-.1 2.3-.3 2.3-.3s-.4.2-.7.4c-2.8.8-8.3.4-6.7-.4C5.2 9 6.3 9 6.3 9z" class="st1"/><path d="M6.5 15.9c2.8.2 7-.1 7.1-1.4 0 0-.2.5-2.3.9-2.4.4-5.3.4-7 .1.1 0 .5.3 2.2.4z" class="st1"/></svg>