<svg xmlns="http://www.w3.org/2000/svg" width="36.218" height="24" fill="none" viewBox="0 0 83 55"><g opacity=".46"><path fill="url(#a)" d="m83 45.805-50.29 8.588 5.097-25.185 43.069-14.61L83 45.805Z"/><path fill="url(#b)" d="M32.709.738 2.974 5.665v37.23l29.735 11.498V.738Z"/><path fill="url(#c)" d="M32.284.738 62.02 6.213v36.812L32.284 54.393V.738Z"/><path fill="url(#d)" d="M32.709 11.688 2.974 5.665v37.23l29.735 11.498V11.688Z"/><path fill="url(#e)" d="M32.284 11.688 62.02 6.213v36.812L32.284 54.393V11.688Z"/><path fill="url(#f)" d="M32.709 11.688 2.974 5.665 0 15.52l28.461 10.403 4.248-14.235Z"/><path fill="url(#g)" d="M32.284 11.688 62.02 6.213l2.548 9.855L36.532 26.47l-4.248-14.782Z"/></g><defs><linearGradient id="a" x1="46.88" x2="82.016" y1="42.025" y2="35.453" gradientUnits="userSpaceOnUse"><stop stop-color="#C5CDD5"/><stop offset="1" stop-color="#F6F8FA"/></linearGradient><linearGradient id="b" x1="4.904" x2="32.766" y1="23.94" y2="26.234" gradientUnits="userSpaceOnUse"><stop stop-color="#E9EEF3"/><stop offset="1" stop-color="#D0D6DC"/></linearGradient><linearGradient id="c" x1="60.089" x2="31.083" y1="23.94" y2="24.249" gradientUnits="userSpaceOnUse"><stop stop-color="#B5C0CB"/><stop offset="1" stop-color="#E9EDF1"/></linearGradient><linearGradient id="d" x1="4.904" x2="32.726" y1="26.737" y2="29.259" gradientUnits="userSpaceOnUse"><stop stop-color="#E9EEF3"/><stop offset="1" stop-color="#D0D6DC"/></linearGradient><linearGradient id="e" x1="60.089" x2="31.084" y1="27.047" y2="27.392" gradientUnits="userSpaceOnUse"><stop stop-color="#C2CAD2"/><stop offset="1" stop-color="#DEE4EA"/></linearGradient><linearGradient id="f" x1="2.124" x2="34.004" y1="14.425" y2="15.415" gradientUnits="userSpaceOnUse"><stop stop-color="#C2CAD2"/><stop offset="1" stop-color="#F6F8FA"/></linearGradient><linearGradient id="g" x1="62.472" x2="31.006" y1="14.973" y2="15.937" gradientUnits="userSpaceOnUse"><stop stop-color="#C2CAD2"/><stop offset="1" stop-color="#F6F8FA"/></linearGradient></defs></svg>